<?xml version="1.0" encoding="UTF-8"?><svg xmlns="http://www.w3.org/2000/svg" xmlns:xlink="http://www.w3.org/1999/xlink" viewBox="0 0 83.89 33.7"><defs><style>.e{fill:url(#d);}.f{fill:#595959;}</style><linearGradient id="d" x1="13.71" y1="0" x2="13.71" y2="33.7" gradientTransform="matrix(1, 0, 0, 1, 0, 0)" gradientUnits="userSpaceOnUse"><stop offset=".34" stop-color="#f99"/><stop offset="1" stop-color="#f09"/></linearGradient></defs><g id="a"/><g id="b"><g id="c"><path class="e" d="M25.71,26.3c-.55-.12-1.62,0-2.09-.32,.59-.14,2.03-.78,2.32-2.5,.07-.59-.17-2.21-2.01-2.5-.26-.04-1.05,.09-1.22,.75-.12,.5,.51,1.05,.92,.74-2.39,2.87-5.2,1.58-5.45,.86,.88-1.69,2.06-3.06,3.23-6.53,.59-1.97,.87-4.22,.66-6.8C21.38,3.99,14.65,.24,8.6,.01,5.15-.12,1.88,.81,.44,3.98c-2.57,7.14,6.94,10.38,9.24,12.16,2.68,2.03,4.07,3.34,4.62,4.84,.32,.85,.28,2.02,.25,2.43,0,0-.02,.02-.03,.03-.96,.18-3.47,.78-6.07-1.27,.55,.15,1.24,.11,1.49-.39,.22-1.05-.64-1.47-1.38-1.61-.92-.16-2.31,.51-2.43,1.98-.16,2,1.96,2.76,2.82,3.13-1.16,.29-3.07,.7-3.61,1.78-.19,.38-.52,1.23,.79,1.23,.96,.07,2.84-1.12,4.15,.03-.91,.4-3.34,1.05-2.84,2.34,.61,1.57,5.8,.36,7.38-.96,0,.91-1.36,3.24-.25,3.95,.98,.56,2.78-2.91,3.41-4.21,.84,.58,1.74,1.8,2.64,2.26,.91,.47,2.05,.71,2.58-.07,.38-.58,.15-1.06-.25-1.59-.41-.54-.98-.91-1.26-1.51,1.38,.13,5.17,.44,5.66-.55,.48-1.13-1.29-1.61-1.63-1.68h0Zm-6.63-13.14s1.09-1.39,1.23-1.24c.28,0,.63,.45,.7,.7,.28,.84,.41,1.7-.71,2.53-1.41,.97-1.69,.36-1.7,.32-.32-1.14,.47-2.3,.47-2.3h0Zm-2.8,2.93c-.4,.17-1.03,.18-1.74,.07-.76-.12-1.26-.41-1.68-.92-.43-.6-.66-1.31-.7-2.05-.11-.9,.29-1.6,.79-1.38l1.87,.84c.22,.11,1.2,.64,1.97,2.82,.05,.12-.09,.42-.53,.61h0Z"/><g><path class="f" d="M50.27,21.09v3.4h1.82v.82h-2.68v-4.21h.86Z"/><path class="f" d="M55.49,21.09v.82h-1.72v.76h1.09v.77h-1.09v1.05h1.89v.82h-2.75v-4.21h2.58Z"/><path class="f" d="M58.44,25.36c-1.54,0-2.42-.99-2.42-2.16s.86-2.16,2.37-2.16c1.13,0,1.83,.53,1.95,.61v.86c-.23-.15-.99-.65-1.93-.65s-1.47,.59-1.48,1.35c0,.77,.59,1.35,1.54,1.35,.37,0,.84-.12,1.09-.29v-1.11h.91v1.52c-.63,.48-1.22,.7-2,.7h-.01Z"/><path class="f" d="M62.09,24.3l-.52,1.01h-.95l2.21-4.22h.42l2.21,4.22h-.95l-.52-1.01h-1.89Zm1.55-.68l-.61-1.22-.6,1.22h1.21Z"/><path class="f" d="M66.86,21.09v3.4h1.82v.82h-2.68v-4.21h.86Z"/><path class="f" d="M35.56,8.34c.16,0,.23,.04,.28,.16l4.43,7.86c.04,.08,.08,.1,.17,.1h.07c.08,0,.12-.01,.17-.1l4.4-7.86c.06-.11,.12-.16,.28-.16h1.44c.19,0,.23,.12,.14,.28l-4.81,8.57c-.38,.7-.73,.88-1.24,.88h-.67c-.61,0-.96-.18-1.34-.88l-4.86-8.57c-.08-.16-.04-.28,.14-.28h1.4Z"/><path class="f" d="M57.42,8.34c.17,0,.25,.08,.25,.25v1.07c0,.18-.08,.26-.25,.26h-6.08c-1.66,0-2.18,.53-2.18,2.21v.32h8.17c.17,0,.25,.07,.25,.25v.89c0,.17-.08,.25-.25,.25h-8.17v.43c0,1.68,.53,2.21,2.18,2.21h6.08c.17,0,.25,.08,.25,.26v1.07c0,.17-.08,.25-.25,.25h-6.09c-2.8,0-3.84-1-3.84-3.66v-2.39c0-2.66,1.06-3.66,3.84-3.66h6.09v-.02Z"/><path class="f" d="M66.18,8.34c2.99,0,4.2,1.21,4.2,3.91v1.88c0,2.71-1.22,3.91-4.2,3.91h-6.41c-.28,0-.42-.14-.42-.42V8.75c0-.28,.14-.42,.42-.42h6.41Zm-5.11,7.98c0,.11,.06,.17,.17,.17h4.89c1.86,0,2.51-.65,2.51-2.47v-1.61c0-1.82-.65-2.47-2.51-2.47h-4.89c-.11,0-.17,.06-.17,.17v6.21h0Z"/><path class="f" d="M77.65,8.34c.6,0,.95,.18,1.33,.88l4.86,8.57c.1,.17,.06,.28-.14,.28h-1.42c-.14,0-.2-.04-.28-.16l-1.09-1.96h-7.03l-1.08,1.96c-.06,.11-.12,.16-.28,.16h-1.45c-.18,0-.23-.11-.14-.28l4.82-8.57c.38-.7,.73-.88,1.22-.88h.67Zm-3.04,6.29h5.55l-2.57-4.58c-.06-.08-.1-.1-.17-.1h-.08c-.07,0-.11,.01-.17,.1l-2.57,4.58Z"/></g></g></g></svg>