<?xml version="1.0" encoding="UTF-8"?>
<svg xmlns="http://www.w3.org/2000/svg" viewBox="-0.5 -0.5 28 34.5">
  <defs>
    <linearGradient id="veda-gradient" x1="0" y1="0" x2="0" y2="1">
      <stop offset=".34" stop-color="#f99"/>
      <stop offset="1" stop-color="#f09"/>
    </linearGradient>
  </defs>
  <path fill="url(#veda-gradient)" d="M25.71,26.3c-.55-.12-1.62,0-2.09-.32,.59-.14,2.03-.78,2.32-2.5,.07-.59-.17-2.21-2.01-2.5-.26-.04-1.05,.09-1.22,.75-.12,.5,.51,1.05,.92,.74-2.39,2.87-5.2,1.58-5.45,.86,.88-1.69,2.06-3.06,3.23-6.53,.59-1.97,.87-4.22,.66-6.8C21.38,3.99,14.65,.24,8.6,.01,5.15-.12,1.88,.81,.44,3.98c-2.57,7.14,6.94,10.38,9.24,12.16,2.68,2.03,4.07,3.34,4.62,4.84,.32,.85,.28,2.02,.25,2.43,0,0-.02,.02-.03,.03-.96,.18-3.47,.78-6.07-1.27,.55,.15,1.24,.11,1.49-.39,.22-1.05-.64-1.47-1.38-1.61-.92-.16-2.31,.51-2.43,1.98-.16,2,1.96,2.76,2.82,3.13-1.16,.29-3.07,.7-3.61,1.78-.19,.38-.52,1.23,.79,1.23,.96,.07,2.84-1.12,4.15,.03-.91,.4-3.34,1.05-2.84,2.34,.61,1.57,5.8,.36,7.38-.96,0,.91-1.36,3.24-.25,3.95,.98,.56,2.78-2.91,3.41-4.21,.84,.58,1.74,1.8,2.64,2.26,.91,.47,2.05,.71,2.58-.07,.38-.58,.15-1.06-.25-1.59-.41-.54-.98-.91-1.26-1.51,1.38,.13,5.17,.44,5.66-.55,.48-1.13-1.29-1.61-1.63-1.68h0Zm-6.63-13.14s1.09-1.39,1.23-1.24c.28,0,.63,.45,.7,.7,.28,.84,.41,1.7-.71,2.53-1.41,.97-1.69,.36-1.7,.32-.32-1.14,.47-2.3,.47-2.3h0Zm-2.8,2.93c-.4,.17-1.03,.18-1.74,.07-.76-.12-1.26-.41-1.68-.92-.43-.6-.66-1.31-.7-2.05-.11-.9,.29-1.6,.79-1.38l1.87,.84c.22,.11,1.2,.64,1.97,2.82,.05,.12-.09,.42-.53,.61h0Z"/>
</svg>
